<svg id="Capa_1" enable-background="new 0 0 495.926 495.926" height="512" viewBox="0 0 495.926 495.926" width="512" xmlns="http://www.w3.org/2000/svg"><g><path d="m218.771 439.951c-9.565 0-17.319-7.754-17.319-17.319v-107.086h34.638v107.087c0 9.564-7.754 17.318-17.319 17.318z" fill="#fee97d"/><path d="m253.409 413.665c-9.565 0-17.319-7.754-17.319-17.319v-80.8h34.638v80.8c0 9.565-7.754 17.319-17.319 17.319z" fill="#fee97d"/><path d="m495.89 279.33c-.36-9.48-3.48-18.3-8.58-25.67-5.507-7.981-13.337-14.248-22.471-17.839l-.876-7.041-32.424-19.459-244.138 13.26-186.471 64.899c-.61 1.32-.93 2.76-.93 4.25v27.58c0 5.9 4.79 10.68 10.68 10.68h447.56 7.62l3.45-5.31c16.33-8.33 27.33-25.6 26.58-45.35z" fill="#fece85"/><g><g id="XMLID_159_"><path d="m76.536 277.795 6.314 9.915c6.93 11.7 10.59 25.06 10.59 38.66v66.51c0 10.78 8.73 19.51 19.51 19.51 5.38 0 10.26-2.18 13.79-5.71s5.71-8.41 5.71-13.8v-60.89c0-12.53 3.11-24.86 9.03-35.9l4.63-8.61 2.748-12.105z" fill="#fee97d"/><g id="XMLID_161_"><g><path d="m363.32 268.48v86.08c0 5.26-2.13 10.03-5.58 13.48s-8.21 5.58-13.47 5.58c-10.52 0-19.05-8.53-19.05-19.06v-86.08z" fill="#fee97d"/></g></g><path d="m384.594 194.662-110.685-91.18-68.044-8.068-14.934 1.778-.131.138-148.674 148.16.979 14.766-21.127 27.224h362.163 8.157l.704-.477z" fill="#fee8c7"/><g id="XMLID_146_"><g><path d="m359.22 233.84h-45.594c-4.142 0-7.5-3.358-7.5-7.5s3.358-7.5 7.5-7.5h45.594c4.142 0 7.5 3.358 7.5 7.5s-3.358 7.5-7.5 7.5z" fill="#fee97d"/></g><path d="m273.909 103.482-68.044-8.068-14.934 1.778-.131.138-148.674 148.16 4.036 20.995-17.517 20.995h45.489l166.6-166.023.132-.138 14.933-1.778 43.927 5.208z" fill="#fedba6"/><path d="m226.174 110.253-18.994 21.477c-3.8 6.91-5.96 14.85-5.96 23.29 0 26.76 21.69 48.44 48.44 48.44 16.64 0 31.31-8.39 40.04-21.16l9.178-14.705z" fill="#f37c7c"/><g><path d="m487.31 253.66c-8.48-12.29-22.45-20.56-38.25-21.16-9.59-.37-18.59 2.04-26.27 6.47-14.58 8.44-24.39 24.2-24.39 42.26v.06c0 3.4-2.78 6.19-6.18 6.19l-.36-.92c-44.4-62.92-104.22-113.76-173.58-147.42-16.71-8.11-26.71-24.51-27.43-41.86-.33-7.79 1.21-15.78 4.86-23.29 11.75-24.23 40.93-34.34 65.15-22.58 87.99 42.7 163.33 108.19 217.88 189.38z" fill="#fedba6"/></g><g><path d="m263.563 120.199c-16.71-8.11-26.71-24.51-27.43-41.86-.33-7.79 1.21-15.78 4.86-23.29 1.413-2.915 3.118-5.624 4.997-8.117-20.261-2.679-40.873 7.66-50.28 27.058-3.65 7.51-5.19 15.5-4.86 23.29.72 17.35 10.72 33.75 27.43 41.86 69.36 33.66 129.18 84.5 173.58 147.42l.36.92c3.4 0 6.18-2.79 6.18-6.19v-.06c0-15.937 7.642-30.079 19.456-38.984-41.84-51.262-94.518-93.039-154.293-122.047z" fill="#fece85"/></g></g></g><path d="m446.006 260.961c-10.516.586-18.975 9.413-19.141 19.943-.113 7.151 3.502 13.467 9.017 17.166 1.608 1.079 2.596 2.866 2.596 4.803v62.439c0 7.803 5.997 14.518 13.792 14.885 8.322.392 15.193-6.24 15.193-14.476v-84.492c-.001-11.577-9.742-20.921-21.457-20.268z" fill="#fee97d"/><path d="m344.268 449.421c-10.523 0-19.053-8.53-19.053-19.053v-9.633c0-10.523 8.53-19.053 19.053-19.053 10.523 0 19.053 8.53 19.053 19.053v9.633c0 10.523-8.53 19.053-19.053 19.053z" fill="#fee97d"/><g id="XMLID_162_"><g><path d="m304.1 273.49c0 4.72-1.15 9.16-3.19 13.07l-.413.92h-49.513l-.445-.92c-2.03-3.91-3.19-8.35-3.19-13.07 0-15.67 12.71-28.37 28.38-28.37 15.671 0 28.371 12.7 28.371 28.37z" fill="#f37c7c"/><path d="m61.35 274.49c0 4.36-.89 8.51-2.48 12.29v.7h-55.47-2.47c.02-.05.04-.09.06-.14.5-1.05 1.18-2.02 2.02-2.87l39.116-38.98 1.414.59c10.54 5.11 17.81 15.91 17.81 28.41z" fill="#ee6161"/></g></g><g><path d="m87.972 260.95c-3.239 0-6.228-2.116-7.19-5.381l-1.688-5.725c-1.171-3.973 1.1-8.144 5.073-9.315 3.968-1.17 8.143 1.099 9.315 5.073l1.688 5.725c1.171 3.973-1.1 8.144-5.073 9.315-.708.208-1.422.308-2.125.308z" fill="#fee45a"/></g><g><path d="m163.101 184.039c-2.069 0-4.128-.851-5.61-2.52l-2.999-3.376c-2.751-3.097-2.47-7.837.627-10.588 3.097-2.75 7.837-2.47 10.588.627l2.999 3.376c2.751 3.097 2.47 7.837-.627 10.588-1.428 1.269-3.207 1.893-4.978 1.893z" fill="#fee45a"/></g><g><path d="m198.271 260.948c-2.041 0-4.075-.828-5.555-2.458-2.785-3.066-2.556-7.81.51-10.594l5.064-4.599c3.067-2.785 7.81-2.556 10.594.51 2.785 3.066 2.556 7.81-.51 10.594l-5.064 4.599c-1.436 1.305-3.241 1.948-5.039 1.948z" fill="#fee97d"/></g></g><circle cx="138.036" cy="231.385" fill="#f37c7c" r="22.063"/></g></svg>